<svg xmlns:dc="http://purl.org/dc/elements/1.1/" xmlns:cc="http://creativecommons.org/ns#" xmlns:rdf="http://www.w3.org/1999/02/22-rdf-syntax-ns#" xmlns:svg="http://www.w3.org/2000/svg" xmlns="http://www.w3.org/2000/svg" viewBox="0 0 2000 948.86932" height="948.86932" width="2000" xml:space="preserve" id="svg2"><metadata></metadata><defs id="defs6"><clipPath id="clipPath22" clipPathUnits="userSpaceOnUse"><path id="path20" d="M 0,711.652 H 1500 V 0 H 0 Z"></path></clipPath></defs><g transform="matrix(1.3333333,0,0,-1.3333333,0,948.86933)" id="g10"><g transform="translate(953.8672,230.0556)" id="g12"><path id="path14" style="fill:#7bcd81;fill-opacity:1;fill-rule:nonzero;stroke:none" d="M 0,0 -6.637,17.578 -13.178,0 Z m -18.564,-14.141 h -3.632 l 13.587,35.014 h 4.136 L 9.066,-14.141 H 5.387 L 1.202,-3.15 h -15.583 z"></path></g><g id="g16"><g clip-path="url(#clipPath22)" id="g18"><g transform="translate(978.3477,225.9189)" id="g24"><path id="path26" style="fill:#7bcd81;fill-opacity:1;fill-rule:nonzero;stroke:none" d="m 0,0 h 3.318 c 0.064,-2.164 0.677,-3.888 1.84,-5.17 1.162,-1.283 2.689,-1.924 4.581,-1.924 2.035,0 3.652,0.637 4.846,1.911 1.194,1.275 1.791,3.002 1.791,5.183 0,3.175 -2.452,5.571 -7.358,7.19 -0.385,0.128 -0.673,0.225 -0.866,0.289 -2.565,0.881 -4.413,2 -5.544,3.355 -1.129,1.354 -1.695,3.122 -1.695,5.302 0,2.79 0.87,5.074 2.609,6.854 1.74,1.78 3.989,2.669 6.747,2.669 2.628,0 4.712,-0.809 6.252,-2.429 1.539,-1.62 2.396,-3.895 2.573,-6.83 h -3.246 c -0.177,1.909 -0.746,3.379 -1.708,4.413 -0.962,1.035 -2.253,1.551 -3.871,1.551 -1.732,0 -3.148,-0.564 -4.246,-1.695 -1.097,-1.13 -1.647,-2.569 -1.647,-4.316 0,-0.915 0.165,-1.704 0.493,-2.37 0.328,-0.665 0.854,-1.27 1.575,-1.815 0.738,-0.545 2.149,-1.154 4.233,-1.827 1.202,-0.385 2.116,-0.697 2.741,-0.939 2.276,-0.881 3.916,-2.007 4.918,-3.378 1.002,-1.371 1.503,-3.17 1.503,-5.399 0,-3.398 -0.926,-6.136 -2.777,-8.212 -1.852,-2.076 -4.309,-3.114 -7.371,-3.114 -2.854,0 -5.17,0.981 -6.95,2.945 C 0.962,-5.792 0.048,-3.207 0,0"></path></g><g transform="translate(1014.5381,225.9189)" id="g28"><path id="path30" style="fill:#7bcd81;fill-opacity:1;fill-rule:nonzero;stroke:none" d="m 0,0 h 3.318 c 0.064,-2.164 0.677,-3.888 1.84,-5.17 1.162,-1.283 2.689,-1.924 4.581,-1.924 2.035,0 3.652,0.637 4.846,1.911 1.194,1.275 1.791,3.002 1.791,5.183 0,3.175 -2.452,5.571 -7.358,7.19 -0.385,0.128 -0.673,0.225 -0.866,0.289 -2.565,0.881 -4.413,2 -5.544,3.355 -1.129,1.354 -1.695,3.122 -1.695,5.302 0,2.79 0.87,5.074 2.609,6.854 1.74,1.78 3.989,2.669 6.747,2.669 2.628,0 4.712,-0.809 6.252,-2.429 1.539,-1.62 2.396,-3.895 2.573,-6.83 h -3.246 c -0.177,1.909 -0.746,3.379 -1.708,4.413 -0.962,1.035 -2.253,1.551 -3.871,1.551 -1.732,0 -3.148,-0.564 -4.246,-1.695 -1.097,-1.13 -1.647,-2.569 -1.647,-4.316 0,-0.915 0.165,-1.704 0.493,-2.37 0.328,-0.665 0.854,-1.27 1.575,-1.815 0.738,-0.545 2.149,-1.154 4.233,-1.827 1.202,-0.385 2.116,-0.697 2.741,-0.939 2.276,-0.881 3.916,-2.007 4.918,-3.378 1.002,-1.371 1.503,-3.17 1.503,-5.399 0,-3.398 -0.926,-6.136 -2.777,-8.212 -1.852,-2.076 -4.309,-3.114 -7.371,-3.114 -2.854,0 -5.17,0.981 -6.95,2.945 C 0.962,-5.792 0.048,-3.207 0,0"></path></g><g transform="translate(1052.0762,250.9286)" id="g32"><path id="path34" style="fill:#7bcd81;fill-opacity:1;fill-rule:nonzero;stroke:none" d="m 0,0 h 3.438 v -22.148 c 0,-1.715 0.069,-2.998 0.205,-3.848 0.136,-0.85 0.365,-1.603 0.685,-2.26 0.625,-1.331 1.543,-2.373 2.754,-3.127 1.21,-0.753 2.576,-1.13 4.1,-1.13 2.645,0 4.601,0.902 5.868,2.705 1.265,1.804 1.899,4.598 1.899,8.381 V 0 h 3.391 v -22.269 c 0,-4.537 -0.902,-7.919 -2.705,-10.147 -1.804,-2.23 -4.541,-3.343 -8.212,-3.343 -3.929,0 -6.815,1.09 -8.657,3.271 C 0.921,-30.309 0,-26.901 0,-22.269 Z"></path></g><g transform="translate(1096.6357,247.4901)" id="g36"><path id="path38" style="fill:#7bcd81;fill-opacity:1;fill-rule:nonzero;stroke:none" d="M 0,0 V -31.575 H -3.391 V 3.438 h 9.403 c 2.068,0 3.731,-0.156 4.99,-0.468 1.259,-0.313 2.4,-0.83 3.427,-1.551 1.394,-0.979 2.497,-2.285 3.306,-3.92 0.81,-1.636 1.215,-3.367 1.215,-5.194 0,-2.71 -0.805,-5.043 -2.417,-6.998 -1.611,-1.956 -3.628,-3.023 -6.048,-3.199 L 18.95,-31.575 H 14.861 L 4.473,-14.693 h 3.319 c 2.212,0 4.012,0.649 5.398,1.947 1.387,1.299 2.081,2.966 2.081,5.002 0,1.234 -0.213,2.357 -0.638,3.367 -0.425,1.01 -1.054,1.892 -1.888,2.646 -0.689,0.625 -1.518,1.07 -2.488,1.334 C 9.286,-0.133 7.559,0 5.074,0 Z"></path></g><g transform="translate(1152.1377,230.0556)" id="g40"><path id="path42" style="fill:#7bcd81;fill-opacity:1;fill-rule:nonzero;stroke:none" d="M 0,0 -6.637,17.578 -13.178,0 Z m -18.564,-14.141 h -3.632 l 13.587,35.014 h 4.136 L 9.066,-14.141 H 5.387 L 1.202,-3.15 h -15.583 z"></path></g><g transform="translate(1200.377,220.0995)" id="g44"><path id="path46" style="fill:#7bcd81;fill-opacity:1;fill-rule:nonzero;stroke:none" d="M 0,0 -0.409,30.829 H 3.006 V -4.185 h -4.137 l -19.214,30.878 0.385,-30.878 h -3.391 v 35.014 h 4.136 z"></path></g><g transform="translate(1251.1885,241.8622)" id="g48"><path id="path50" style="fill:#7bcd81;fill-opacity:1;fill-rule:nonzero;stroke:none" d="m 0,0 c -1.571,2.181 -3.327,3.784 -5.267,4.81 -1.939,1.026 -4.152,1.539 -6.636,1.539 -3.897,0 -7.227,-1.443 -9.993,-4.328 -2.765,-2.886 -4.148,-6.317 -4.148,-10.293 0,-4.233 1.375,-7.8 4.124,-10.702 2.75,-2.901 6.088,-4.352 10.017,-4.352 2.42,0 4.608,0.505 6.564,1.515 1.956,1.01 3.655,2.517 5.099,4.521 h 4.088 c -1.604,-2.981 -3.751,-5.287 -6.445,-6.914 -2.693,-1.627 -5.716,-2.441 -9.066,-2.441 -5.147,0 -9.439,1.756 -12.878,5.267 -3.438,3.511 -5.158,7.896 -5.158,13.154 0,2.453 0.465,4.778 1.394,6.974 0.93,2.196 2.293,4.176 4.089,5.939 1.667,1.668 3.538,2.93 5.615,3.789 2.076,0.857 4.325,1.286 6.746,1.286 3.478,0 6.609,-0.85 9.39,-2.549 C 0.316,5.516 2.517,3.11 4.137,0 Z"></path></g><g transform="translate(1277.0625,235.2255)" id="g52"><path id="path54" style="fill:#7bcd81;fill-opacity:1;fill-rule:nonzero;stroke:none" d="M 0,0 H 14.718 V -3.463 H 0 V -15.92 h 14.718 v -3.391 H -3.463 V 15.703 H 14.718 V 12.265 L 0,12.265 Z"></path></g><g transform="translate(1309.7441,225.9189)" id="g56"><path id="path58" style="fill:#7bcd81;fill-opacity:1;fill-rule:nonzero;stroke:none" d="m 0,0 h 3.318 c 0.064,-2.164 0.677,-3.888 1.84,-5.17 1.162,-1.283 2.689,-1.924 4.581,-1.924 2.035,0 3.652,0.637 4.846,1.911 1.194,1.275 1.791,3.002 1.791,5.183 0,3.175 -2.452,5.571 -7.358,7.19 -0.385,0.128 -0.673,0.225 -0.866,0.289 -2.565,0.881 -4.413,2 -5.544,3.355 -1.129,1.354 -1.695,3.122 -1.695,5.302 0,2.79 0.87,5.074 2.609,6.854 1.74,1.78 3.989,2.669 6.747,2.669 2.628,0 4.712,-0.809 6.252,-2.429 1.539,-1.62 2.396,-3.895 2.573,-6.83 h -3.246 c -0.177,1.909 -0.746,3.379 -1.708,4.413 -0.962,1.035 -2.253,1.551 -3.871,1.551 -1.732,0 -3.148,-0.564 -4.246,-1.695 -1.097,-1.13 -1.647,-2.569 -1.647,-4.316 0,-0.915 0.165,-1.704 0.493,-2.37 0.328,-0.665 0.854,-1.27 1.575,-1.815 0.738,-0.545 2.149,-1.154 4.233,-1.827 1.202,-0.385 2.116,-0.697 2.741,-0.939 2.276,-0.881 3.916,-2.007 4.918,-3.378 1.002,-1.371 1.503,-3.17 1.503,-5.399 0,-3.398 -0.926,-6.136 -2.777,-8.212 -1.852,-2.076 -4.309,-3.114 -7.371,-3.114 -2.854,0 -5.17,0.981 -6.95,2.945 C 0.962,-5.792 0.048,-3.207 0,0"></path></g><g transform="translate(815.1172,461.4521)" id="g60"><path id="path62" style="fill:#0462a0;fill-opacity:1;fill-rule:nonzero;stroke:none" d="m 0,0 h 31.049 v -101.658 c 0,-14.023 -1.839,-26.253 -5.509,-36.683 -3.674,-10.434 -9.433,-19.073 -17.277,-25.916 -7.848,-6.847 -17.989,-11.936 -30.422,-15.273 -12.438,-3.337 -27.504,-5.008 -45.195,-5.008 -17.528,0 -32.513,1.671 -44.946,5.008 -12.437,3.337 -22.578,8.426 -30.423,15.273 -7.848,6.843 -13.607,15.482 -17.277,25.916 -3.673,10.43 -5.508,22.66 -5.508,36.683 V 0 h 32.801 v -101.658 c 0,-9.183 1.127,-17.028 3.38,-23.537 2.254,-6.511 5.924,-11.855 11.017,-16.026 5.091,-4.174 11.894,-7.221 20.407,-9.138 8.514,-1.921 19.03,-2.88 31.549,-2.88 12.52,0 23.037,0.959 31.549,2.88 8.514,1.917 15.314,4.964 20.408,9.138 5.089,4.171 8.763,9.515 11.017,16.026 2.253,6.509 3.38,14.354 3.38,23.537 z"></path></g><g transform="translate(947.959,279.4179)" id="g64"><path id="path66" style="fill:#0462a0;fill-opacity:1;fill-rule:nonzero;stroke:none" d="m 0,0 c -12.668,0 -24.382,2.379 -35.133,7.136 -10.756,4.758 -20.09,11.267 -28.009,19.531 -7.919,8.263 -14.088,18.066 -18.505,29.421 -4.421,11.35 -6.627,23.619 -6.627,36.808 0,13.352 2.21,25.539 6.634,36.556 4.421,11.018 10.599,20.407 18.53,28.169 7.926,7.762 17.277,13.772 28.044,18.028 10.766,4.257 22.492,6.385 35.179,6.385 H 98.767 V 150.235 H 0.113 c -8.18,0 -15.735,-1.464 -22.66,-4.382 -6.929,-2.923 -12.895,-6.972 -17.903,-12.144 -5.008,-5.176 -8.932,-11.354 -11.769,-18.529 -2.84,-7.179 -4.256,-15.109 -4.256,-23.787 0,-8.513 1.416,-16.444 4.256,-23.788 2.837,-7.347 6.761,-13.646 11.769,-18.904 5.008,-5.259 10.974,-9.389 17.903,-12.394 6.925,-3.005 14.48,-4.507 22.66,-4.507 H 77.984 V 79.124 H -4.144 v 26.792 H 109.784 L 109.784,0 Z"></path></g><path id="path68" style="fill:#0462a0;fill-opacity:1;fill-rule:nonzero;stroke:none" d="m 1079.023,461.452 h 31.8 V 279.418 h -31.8 z"></path><g transform="translate(1188.9443,329.997)" id="g70"><path id="path72" style="fill:#0462a0;fill-opacity:1;fill-rule:nonzero;stroke:none" d="m 0,0 v 30.798 h 73.113 c 11.182,0 19.907,3.13 26.166,9.39 6.26,6.26 9.39,14.648 9.39,25.164 0,10.517 -3.126,18.861 -9.374,25.039 -6.248,6.174 -14.953,9.265 -26.114,9.265 H -23.036 V -50.579 h -31.8 V 131.455 H 73.113 c 10.517,0 19.907,-1.545 28.169,-4.632 8.264,-3.091 15.232,-7.429 20.908,-13.02 5.673,-5.595 10.016,-12.395 13.021,-20.407 3.004,-8.013 4.507,-17.027 4.507,-27.042 0,-9.852 -1.503,-18.823 -4.507,-26.917 C 132.206,31.338 127.863,24.37 122.19,18.529 116.514,12.684 109.546,8.138 101.282,4.883 93.02,1.627 83.63,0 73.113,0 Z"></path></g><g transform="translate(301.2537,158.1199)" id="g74"><path id="path76" style="fill:#138dce;fill-opacity:1;fill-rule:nonzero;stroke:none" d="m 0,0 -164.15,164.15 c -6.863,6.863 -6.863,17.989 0,24.852 L 0,353.152 c 6.863,6.862 17.989,6.862 24.852,0 l 164.15,-164.15 c 6.862,-6.863 6.862,-17.989 0,-24.852 L 24.852,0 C 17.989,-6.863 6.863,-6.863 0,0"></path></g><g transform="translate(430.9586,199.8882)" id="g78"><path id="path80" style="fill:#7bcd81;fill-opacity:1;fill-rule:nonzero;stroke:none" d="m 0,0 -125.321,125.321 c -5.239,5.239 -5.239,13.734 0,18.973 L 0,269.615 c 5.239,5.239 13.734,5.239 18.973,0 L 144.294,144.294 c 5.239,-5.239 5.239,-13.734 0,-18.973 L 18.973,0 C 13.734,-5.239 5.239,-5.239 0,0"></path></g><g transform="translate(399.4162,437.9607)" id="g82"><path id="path84" style="fill:#0462a0;fill-opacity:1;fill-rule:nonzero;stroke:none" d="m 0,0 -93.779,-93.779 c -5.239,-5.239 -5.239,-13.733 0,-18.972 L 0,-206.53 l 90.839,90.839 c 6.863,6.863 6.863,17.989 0,24.852 z"></path></g></g></g></g></svg>